<svg xmlns="http://www.w3.org/2000/svg" viewBox="0 0 920 116"><defs><style>.cls-1{fill:#282828;}.cls-2{fill:#fff;}</style></defs><g id="Layer_2" data-name="Layer 2"><g id="Layer_1-2" data-name="Layer 1"><rect class="cls-1" y="1" width="115" height="115"/><rect class="cls-2" y="1" width="57" height="57"/><rect class="cls-2" x="57" y="58" width="58" height="58"/><rect class="cls-1" x="115" y="1" width="115" height="115"/><rect class="cls-2" x="115" y="1" width="57" height="57"/><rect class="cls-2" x="172" y="58" width="58" height="58"/><rect class="cls-1" x="230" y="1" width="115" height="115"/><rect class="cls-2" x="230" y="1" width="57" height="57"/><rect class="cls-2" x="287" y="58" width="58" height="58"/><rect class="cls-1" x="345" y="1" width="115" height="115"/><rect class="cls-2" x="345" y="1" width="57" height="57"/><rect class="cls-2" x="402" y="58" width="58" height="58"/><rect class="cls-1" x="460" width="115" height="115"/><rect class="cls-2" x="460" width="57" height="57"/><rect class="cls-2" x="517" y="57" width="58" height="58"/><rect class="cls-1" x="575" width="115" height="115"/><rect class="cls-2" x="575" width="57" height="57"/><rect class="cls-2" x="632" y="57" width="58" height="58"/><rect class="cls-1" x="690" width="115" height="115"/><rect class="cls-2" x="690" width="57" height="57"/><rect class="cls-2" x="747" y="57" width="58" height="58"/><rect class="cls-1" x="805" width="115" height="115"/><rect class="cls-2" x="805" width="57" height="57"/><rect class="cls-2" x="862" y="57" width="58" height="58"/></g></g></svg>