<svg width="1944" height="246" viewBox="0 0 1944 246" fill="none" xmlns="http://www.w3.org/2000/svg">
<g clip-path="url(#clip0)">
<path d="M242.891 2.11328H0V245.004H242.891V2.11328Z" fill="#282828"/>
<path d="M120.39 2.11328H0V122.503H120.39V2.11328Z" fill="white"/>
<path d="M242.891 122.504H120.389V245.006H242.891V122.504Z" fill="white"/>
<path d="M485.782 2.11328H242.891V245.004H485.782V2.11328Z" fill="#282828"/>
<path d="M363.281 2.11328H242.891V122.503H363.281V2.11328Z" fill="white"/>
<path d="M485.782 122.504H363.28V245.006H485.782V122.504Z" fill="white"/>
<path d="M728.673 2.11328H485.782V245.004H728.673V2.11328Z" fill="#282828"/>
<path d="M606.171 2.11328H485.782V122.503H606.171V2.11328Z" fill="white"/>
<path d="M728.674 122.502H606.172V245.004H728.674V122.502Z" fill="white"/>
<path d="M971.564 2.11328H728.673V245.004H971.564V2.11328Z" fill="#282828"/>
<path d="M849.063 2.11328H728.673V122.503H849.063V2.11328Z" fill="white"/>
<path d="M971.565 122.502H849.063V245.004H971.565V122.502Z" fill="white"/>
<path d="M1214.46 0.00195312H971.564V242.893H1214.46V0.00195312Z" fill="#282828"/>
<path d="M1091.95 0.00195312H971.564V120.391H1091.95V0.00195312Z" fill="white"/>
<path d="M1214.46 120.391H1091.95V242.892H1214.46V120.391Z" fill="white"/>
<path d="M1457.35 0.00195312H1214.46V242.893H1457.35V0.00195312Z" fill="#282828"/>
<path d="M1334.84 0.00195312H1214.46V120.391H1334.84V0.00195312Z" fill="white"/>
<path d="M1457.35 120.391H1334.85V242.892H1457.35V120.391Z" fill="white"/>
<path d="M1700.24 0.00195312H1457.35V242.893H1700.24V0.00195312Z" fill="#282828"/>
<path d="M1577.74 0.00195312H1457.35V120.391H1577.74V0.00195312Z" fill="white"/>
<path d="M1700.24 120.391H1577.74V242.892H1700.24V120.391Z" fill="white"/>
<path d="M1943.13 0H1700.24V242.891H1943.13V0Z" fill="#282828"/>
<path d="M1820.63 0H1700.24V120.39H1820.63V0Z" fill="white"/>
<path d="M1943.13 120.391H1820.63V242.892H1943.13V120.391Z" fill="white"/>
</g>
<defs>
<clipPath id="clip0">
<rect width="1943.13" height="245.003" fill="white"/>
</clipPath>
</defs>
</svg>
