<svg width="2166" height="274" viewBox="0 0 2166 274" fill="none" xmlns="http://www.w3.org/2000/svg">
<g clip-path="url(#clip0)">
<path d="M270.745 2.35547H0.000488281V273.1H270.745V2.35547Z" fill="#282828"/>
<path d="M134.196 2.35547H0.000488281V136.551H134.196V2.35547Z" fill="white"/>
<path d="M270.745 136.551H134.196V273.1H270.745V136.551Z" fill="white"/>
<path d="M541.49 2.35547H270.745V273.1H541.49V2.35547Z" fill="#282828"/>
<path d="M404.94 2.35547H270.745V136.551H404.94V2.35547Z" fill="white"/>
<path d="M541.49 136.549H404.94V273.098H541.49V136.549Z" fill="white"/>
<path d="M812.235 2.35352H541.49V273.098H812.235V2.35352Z" fill="#282828"/>
<path d="M675.685 2.35352H541.49V136.549H675.685V2.35352Z" fill="white"/>
<path d="M812.235 136.549H675.685V273.098H812.235V136.549Z" fill="white"/>
<path d="M1082.98 2.35352H812.235V273.098H1082.98V2.35352Z" fill="#282828"/>
<path d="M946.43 2.35352H812.235V136.549H946.43V2.35352Z" fill="white"/>
<path d="M1082.98 136.549H946.43V273.098H1082.98V136.549Z" fill="white"/>
<path d="M1353.72 0H1082.98V270.745H1353.72V0Z" fill="#282828"/>
<path d="M1217.18 0H1082.98V134.195H1217.18V0Z" fill="white"/>
<path d="M1353.72 134.195H1217.18V270.745H1353.72V134.195Z" fill="white"/>
<path d="M1624.47 0H1353.72V270.745H1624.47V0Z" fill="#282828"/>
<path d="M1487.92 0H1353.72V134.195H1487.92V0Z" fill="white"/>
<path d="M1624.47 134.195H1487.92V270.745H1624.47V134.195Z" fill="white"/>
<path d="M1895.21 0H1624.47V270.745H1895.21V0Z" fill="#282828"/>
<path d="M1758.66 0H1624.47V134.195H1758.66V0Z" fill="white"/>
<path d="M1895.21 134.195H1758.66V270.745H1895.21V134.195Z" fill="white"/>
<path d="M2165.96 0H1895.21V270.745H2165.96V0Z" fill="#282828"/>
<path d="M2029.41 0H1895.21V134.195H2029.41V0Z" fill="white"/>
<path d="M2165.96 134.195H2029.41V270.745H2165.96V134.195Z" fill="white"/>
</g>
<defs>
<clipPath id="clip0">
<rect width="2165.96" height="273.099" fill="white"/>
</clipPath>
</defs>
</svg>
