<svg width="2180" height="329" viewBox="0 0 2180 329" fill="none" xmlns="http://www.w3.org/2000/svg">
<g clip-path="url(#clip0)">
<path d="M31.1384 275.459L2148.55 275.459L2148.55 191.827L31.1384 191.826L31.1384 275.459Z" fill="white"/>
<path d="M31.1377 191.828L2148.55 191.828L2148.55 55.3751L31.1377 55.3749L31.1377 191.828Z" fill="white"/>
<path d="M30.178 220.439C241.815 214.937 242.957 273.259 454.62 273.259C666.284 273.259 666.361 220.439 878.077 220.439C1089.79 220.439 1089.82 273.259 1301.56 273.259C1513.3 273.259 1513.3 220.439 1725.07 220.439C1936.83 220.439 1935.95 267.757 2147.59 273.259C2154.08 273.414 2179.69 252.351 2179.69 257.853C2179.69 263.356 2117.41 263.356 2117.41 268.858C2117.41 274.36 2179.69 274.36 2179.69 279.862C2179.69 285.364 2117.41 285.364 2117.41 290.866C2117.41 296.368 2156 328.105 2149.51 328.259C1937.87 333.761 1936.73 275.438 1725.07 275.438C1513.4 275.438 1513.33 328.259 1301.61 328.259C1089.9 328.259 1089.87 275.438 878.128 275.438C666.387 275.438 666.387 328.259 454.62 328.259C242.853 328.259 243.735 280.94 32.0981 275.438C25.611 275.284 -0.000350477 296.346 -0.000349996 290.844C-0.000349515 285.342 62.2764 285.342 62.2764 279.84C62.2764 274.338 -0.000348553 274.338 -0.000348072 268.836C-0.000347591 263.333 62.8474 259.856 62.017 254.398C59.0848 235.383 23.6908 220.615 30.178 220.439Z" fill="#5985C2"/>
<path d="M30.1784 110.395C241.816 104.893 242.957 163.216 454.621 163.216C666.284 163.216 666.362 110.395 878.077 110.395C1089.79 110.395 1089.82 163.216 1301.56 163.216C1513.3 163.216 1513.3 110.395 1725.07 110.395C1936.83 110.395 1935.95 157.714 2147.59 163.216C2154.08 163.37 2179.69 142.308 2179.69 147.81C2179.69 153.312 2117.41 153.312 2117.41 158.814C2117.41 164.316 2179.69 164.316 2179.69 169.819C2179.69 175.321 2117.41 175.321 2117.41 180.823C2117.41 186.325 2156 218.061 2149.51 218.237C1937.87 223.739 1936.73 165.417 1725.07 165.417C1513.4 165.417 1513.33 218.237 1301.61 218.237C1089.9 218.237 1089.87 165.417 878.129 165.417C666.388 165.417 666.388 218.237 454.621 218.237C242.854 218.237 243.736 170.919 32.0985 165.417C25.6114 165.263 5.96027e-05 186.325 6.00838e-05 180.823C6.05648e-05 175.32 62.2769 175.32 62.2769 169.818C62.2769 164.316 6.15268e-05 164.316 6.20078e-05 158.814C6.24888e-05 153.312 62.8478 149.835 62.0174 144.376C59.0852 125.339 23.6912 110.571 30.1784 110.395Z" fill="#5985C2"/>
<path d="M30.1783 0.35228C241.816 -5.14984 242.957 53.1728 454.621 53.1728C666.284 53.1729 666.362 0.352335 878.077 0.352354C1089.79 0.352372 1089.82 53.1729 1301.56 53.1729C1513.3 53.1729 1513.3 0.352409 1725.07 0.352428C1936.83 0.352446 1935.95 47.6708 2147.59 53.173C2154.08 53.3491 2179.69 32.2869 2179.69 37.767C2179.69 43.2471 2117.41 43.2691 2117.41 48.7713C2117.41 54.2734 2179.69 54.2734 2179.69 59.7756C2179.69 65.2777 2117.41 65.2777 2117.41 70.7798C2117.41 76.282 2156 108.018 2149.51 108.194C1937.87 113.696 1936.73 55.3738 1725.07 55.3738C1513.4 55.3738 1513.33 108.194 1301.61 108.194C1089.9 108.194 1089.87 55.3737 878.129 55.3737C666.388 55.3737 666.388 108.194 454.621 108.194C242.854 108.194 243.736 60.8758 32.0984 55.3737C25.6113 55.2196 -4.53014e-05 76.2818 -4.48204e-05 70.7796C-4.43394e-05 65.2775 62.2767 65.2775 62.2767 59.7754C62.2767 54.2732 -4.33774e-05 54.2732 -4.28964e-05 48.7711C-4.24153e-05 43.269 62.8477 39.7916 62.0173 34.3335C59.0851 15.2961 23.6911 0.528347 30.1783 0.35228Z" fill="#5985C2"/>
</g>
<defs>
<clipPath id="clip0">
<rect width="2179.69" height="328.632" fill="white" transform="translate(2179.69 328.633) rotate(-180)"/>
</clipPath>
</defs>
</svg>
