<svg width="168" height="168" viewBox="0 0 168 168" fill="none" xmlns="http://www.w3.org/2000/svg">
<path d="M74.6091 155.971L78.6887 156.4L79.7995 153.933L80.6349 154.021L76.4622 163.254L75.2857 163.13L73.1163 153.231L74.0352 153.328L74.6091 155.971ZM78.3045 157.176L74.8167 156.809L75.9854 162.366L78.3045 157.176Z" fill="#282828"/>
<path d="M68.1022 152.216L67.9088 152.918L66.7548 152.6L65.1911 158.275L66.3451 158.593L66.1499 159.302L64.3548 158.807L64.6681 157.064C64.2305 157.563 63.7736 157.921 63.2975 158.138C62.8156 158.359 62.2439 158.378 61.5826 158.196C61.3981 158.145 61.2376 158.086 61.1011 158.02C60.9601 157.952 60.8141 157.875 60.6633 157.79L61.1171 157.066C61.2622 157.154 61.3929 157.224 61.5095 157.275C61.6202 157.33 61.7521 157.379 61.9051 157.421C62.4765 157.578 63.0163 157.516 63.5245 157.235C64.0315 156.959 64.5269 156.434 65.0107 155.662L65.918 152.369L64.4603 151.968L64.6537 151.266L68.1022 152.216ZM62.1812 155.812L61.8001 157.196L61.5137 158.024L60.6633 157.79L61.3714 155.589L62.1812 155.812Z" fill="#282828"/>
<path d="M52.0009 146.696C52.2877 146.654 52.6055 146.667 52.9542 146.736C53.3029 146.804 53.6107 146.9 53.8776 147.024C54.5469 147.333 54.9899 147.754 55.2066 148.286C55.4191 148.816 55.4011 149.35 55.1524 149.888L53.1815 154.151L54.7573 154.88L54.4518 155.541L52.8761 154.812L52.1653 156.35L51.3333 156.081L52.0882 154.448L49.7372 153.361L50.1507 152.75L52.3936 153.787L54.3557 149.543C54.5339 149.157 54.5681 148.811 54.4585 148.503C54.3426 148.197 54.0369 147.93 53.5413 147.701C53.2871 147.583 53.0383 147.504 52.7949 147.464C52.5514 147.423 52.314 147.409 52.0826 147.42L52.0009 146.696Z" fill="#282828"/>
<path d="M44.8463 146.816L44.3897 147.487L39.8631 144.409L40.3197 143.738L44.8463 146.816Z" fill="#282828"/>
<path d="M34.5773 133.569L30.0331 138.338L32.6277 140.81L37.1719 136.042L37.8053 136.645L32.7347 141.966L28.8733 138.286L33.9439 132.966L34.5773 133.569Z" fill="#282828"/>
<path d="M22.0147 130.451C21.619 129.925 21.4314 129.412 21.4519 128.912C21.4725 128.411 21.6615 127.921 22.019 127.442C22.3728 126.965 22.8536 126.498 23.4613 126.041C24.0503 125.597 24.6359 125.285 25.218 125.104C25.7972 124.919 26.3455 124.894 26.8629 125.031C27.3736 125.166 27.8241 125.493 28.2142 126.011C28.7167 126.678 28.885 127.387 28.7193 128.137L31.549 126.006L32.1662 126.628L23.9566 132.809L23.5272 132.238L24.335 131.508C23.8796 131.523 23.4506 131.446 23.048 131.276C22.6426 131.102 22.2982 130.827 22.0147 130.451ZM22.7001 130.127C22.9724 130.489 23.3223 130.725 23.75 130.835C24.174 130.948 24.5721 130.996 24.9445 130.979L27.9867 128.688C28.1055 128.342 28.1394 127.983 28.0884 127.613C28.0373 127.242 27.8967 126.904 27.6665 126.599C27.2567 126.054 26.7527 125.8 26.1545 125.836C25.5535 125.867 24.8429 126.192 24.0227 126.81C23.5007 127.203 23.0982 127.587 22.8152 127.964C22.5321 128.341 22.3783 128.711 22.3538 129.074C22.3265 129.433 22.4419 129.784 22.7001 130.127Z" fill="#282828"/>
<path d="M19.7137 115.185C19.9785 115.047 20.1491 114.9 20.2257 114.744C20.2982 114.591 20.3137 114.404 20.2722 114.183L20.9471 114.099C21.0394 114.367 21.064 114.636 21.0207 114.906C20.9774 115.176 20.8274 115.428 20.5705 115.662C20.9913 115.732 21.372 115.896 21.7126 116.155C22.0469 116.413 22.3264 116.756 22.551 117.186C22.8879 117.832 22.9705 118.434 22.7986 118.992C22.6268 119.55 22.2369 119.988 21.6288 120.305C20.9669 120.651 20.3262 120.659 19.7068 120.33C19.0852 119.996 18.5173 119.337 18.0033 118.353L17.4882 117.366L16.8553 117.696C16.3465 117.962 16.0674 118.295 16.018 118.694C15.9623 119.092 16.0663 119.543 16.3298 120.048C16.4442 120.267 16.5986 120.502 16.793 120.753C16.9873 121.005 17.233 121.268 17.5301 121.545L17.0138 122.099C16.6638 121.781 16.3768 121.479 16.1525 121.19C15.9262 120.898 15.7341 120.601 15.5765 120.299C15.1769 119.533 15.0638 118.858 15.2373 118.273C15.4044 117.685 15.7962 117.231 16.4125 116.909L19.7137 115.185ZM21.8589 117.358C21.6732 117.002 21.4124 116.715 21.0767 116.495C20.741 116.276 20.3618 116.139 19.9393 116.086L18.0777 117.058L18.6414 118.138C19.0453 118.911 19.4637 119.38 19.8965 119.544C20.3252 119.709 20.763 119.676 21.2097 119.442C21.6607 119.207 21.9436 118.917 22.0587 118.573C22.1696 118.231 22.103 117.826 21.8589 117.358Z" fill="#282828"/>
<path d="M18.3957 108.479L11.412 110.77L11.1414 109.946L14.0147 109.003L13.5107 107.466L9.92599 106.241L9.58995 105.217L13.6342 106.63L16.4362 102.506L16.7963 103.604L14.2733 107.231L14.773 108.754L18.1252 107.654L18.3957 108.479Z" fill="#282828"/>
<path d="M7.12618 92.7579L7.91596 92.7354L8.33269 95.4405L14.8221 94.4408L14.9543 95.2987L8.46484 96.2984L8.8837 99.0173L8.10884 99.1367L7.12618 92.7579Z" fill="#282828"/>
<path d="M6.72721 80.6793L14.0767 80.7624L14.0665 81.6654L10.2938 81.6227C9.8598 81.6178 9.43291 81.606 9.01309 81.5872C8.59328 81.5685 8.22254 81.5433 7.90087 81.5116L14.0297 84.9201L14.0164 86.0961L6.66691 86.013L6.67711 85.11L10.4289 85.1525C10.8815 85.1576 11.3294 85.1696 11.7726 85.1886C12.2157 85.2077 12.5562 85.2278 12.7939 85.2492L6.71352 81.8902L6.72721 80.6793Z" fill="#282828"/>
<path d="M14.6335 74.5559L7.39633 73.2728L7.54785 72.4182L10.5254 72.946L10.8077 71.3539L8.22847 68.579L8.41665 67.5176L11.3119 70.6755L15.7308 68.3664L15.5292 69.5037L11.591 71.507L11.3112 73.0853L14.785 73.7012L14.6335 74.5559Z" fill="#282828"/>
<path d="M17.3859 58.2309C17.6675 58.3304 17.8914 58.3551 18.0576 58.3049C18.2194 58.2532 18.3668 58.137 18.4999 57.9564L19.0213 58.393C18.8884 58.643 18.7084 58.8442 18.4814 58.9966C18.2543 59.149 17.9676 59.211 17.6212 59.1827C17.8569 59.5382 17.9961 59.9288 18.0387 60.3547C18.0784 60.7746 18.0174 61.2133 17.8557 61.6709C17.6132 62.3573 17.2292 62.828 16.7036 63.0828C16.178 63.3376 15.5918 63.3507 14.945 63.1222C14.241 62.8734 13.7984 62.4102 13.6171 61.7324C13.4374 61.0503 13.5326 60.1856 13.9026 59.1384L14.2734 58.0889L13.6001 57.8511C13.0589 57.6599 12.6253 57.6824 12.2994 57.9186C11.9705 58.1489 11.7113 58.5324 11.5216 59.0692C11.4392 59.3025 11.3724 59.5758 11.321 59.8893C11.2696 60.2027 11.244 60.5624 11.2441 60.9683L10.487 60.968C10.4807 60.4956 10.5066 60.0791 10.5647 59.7185C10.6243 59.3536 10.7109 59.0105 10.8244 58.6893C11.112 57.8753 11.529 57.3322 12.0756 57.06C12.6193 56.7819 13.2189 56.7587 13.8746 56.9903L17.3859 58.2309ZM17.2583 61.2817C17.392 60.9032 17.4247 60.5164 17.3565 60.1211C17.2883 59.7258 17.1296 59.3554 16.8804 59.01L14.9004 58.3105L14.4946 59.4589C14.2039 60.2817 14.1462 60.9072 14.3216 61.3354C14.4926 61.7621 14.8157 62.0594 15.2909 62.2273C15.7705 62.3967 16.1755 62.4062 16.5058 62.2556C16.8318 62.1035 17.0826 61.7789 17.2583 61.2817Z" fill="#282828"/>
<path d="M28.1893 37.6838L25.6487 40.9043L27.141 43.1604L26.6207 43.8199L21.0423 35.3623L21.775 34.4335L31.3031 37.8845L30.7308 38.6099L28.1893 37.6838ZM25.1976 40.165L27.3697 37.4117L22.0474 35.4331L25.1976 40.165Z" fill="#282828"/>
<path d="M34.8384 34.1855L34.3482 33.6472L35.2332 32.8413L31.2693 28.4888L30.3843 29.2947L29.8894 28.7513L31.266 27.4976L32.5728 28.6934C32.3845 28.0569 32.3256 27.4794 32.3961 26.9607C32.4669 26.4355 32.7559 25.9419 33.2631 25.48C33.4045 25.3512 33.5399 25.2468 33.6692 25.167C33.8019 25.084 33.9445 25.0015 34.097 24.9194L34.4673 25.6899C34.3151 25.7654 34.1862 25.8386 34.0804 25.9096C33.975 25.9741 33.8636 26.0597 33.7463 26.1666C33.3082 26.5656 33.0722 27.0551 33.0385 27.6349C33.0017 28.2113 33.1804 28.9101 33.5748 29.7312L35.8749 32.2568L36.9928 31.2387L37.483 31.777L34.8384 34.1855ZM34.9589 27.2589L33.9926 26.1979L33.4449 25.5133L34.097 24.9194L35.5799 26.6933L34.9589 27.2589Z" fill="#282828"/>
<path d="M48.1029 23.5194C47.9855 23.7845 47.8046 24.0461 47.5604 24.3043C47.3161 24.5625 47.0706 24.7715 46.8238 24.9313C46.2049 25.332 45.6126 25.4819 45.047 25.3811C44.4853 25.2778 44.0434 24.9774 43.7213 24.4799L41.1687 20.537L39.7115 21.4805L39.3158 20.8693L40.7731 19.9259L39.8525 18.5039L40.524 17.944L41.5017 19.4542L43.6759 18.0466L43.9716 18.7224L41.8974 20.0653L44.4386 23.9905C44.6694 24.347 44.9441 24.561 45.2629 24.6326C45.583 24.6978 45.9723 24.582 46.4306 24.2852C46.6656 24.1331 46.8653 23.9649 47.0296 23.7807C47.1939 23.5965 47.333 23.4036 47.447 23.2019L48.1029 23.5194Z" fill="#282828"/>
<path d="M51.8225 17.4087L51.4985 16.6642L56.518 14.4802L56.8419 15.2248L51.8225 17.4087Z" fill="#282828"/>
<path d="M68.5046 15.7968L66.899 9.40851L63.4231 10.2821L65.0287 16.6704L64.1801 16.8837L62.3885 9.75543L67.5616 8.45524L69.3532 15.5835L68.5046 15.7968Z" fill="#282828"/>
<path d="M77.8485 6.83986C78.5043 6.78591 79.0382 6.90119 79.4502 7.1857C79.8623 7.47021 80.1756 7.89161 80.3901 8.4499C80.6042 9.00355 80.7424 9.65942 80.8048 10.4175C80.8652 11.1524 80.8167 11.8143 80.6591 12.4032C80.5061 12.9917 80.234 13.4683 79.8425 13.8329C79.4554 14.1925 78.9386 14.3989 78.2921 14.4521C77.4596 14.5206 76.7706 14.2846 76.2251 13.7442L76.5155 17.2743L75.6602 17.464L74.8177 7.22263L75.5293 7.16409L75.7159 8.2374C75.9457 7.8439 76.24 7.52236 76.5988 7.27277C76.9622 7.0228 77.3788 6.8785 77.8485 6.83986ZM77.7559 7.59198C77.3047 7.6291 76.9183 7.79901 76.5967 8.10173C76.2748 8.3998 76.0218 8.71092 75.8377 9.0351L76.1499 12.8303C76.3794 13.1158 76.6644 13.3358 77.0049 13.4904C77.3454 13.645 77.7063 13.7066 78.0877 13.6753C78.7668 13.6194 79.2509 13.3291 79.5402 12.8042C79.8341 12.279 79.939 11.5048 79.8548 10.4816C79.8013 9.83049 79.6908 9.28471 79.5235 8.84428C79.3561 8.40385 79.1255 8.07632 78.8316 7.8617C78.5423 7.64669 78.1837 7.55678 77.7559 7.59198Z" fill="#282828"/>
<path d="M91.984 13.0436C91.9595 13.3413 91.9927 13.5641 92.0835 13.712C92.1748 13.8553 92.3247 13.9683 92.5333 14.051L92.2438 14.6664C91.9682 14.6016 91.7278 14.4788 91.5226 14.298C91.3174 14.1173 91.1844 13.8558 91.1236 13.5137C90.8398 13.8321 90.4975 14.0662 90.0966 14.2158C89.7006 14.3612 89.2608 14.414 88.7771 14.3742C88.0516 14.3145 87.4987 14.063 87.1184 13.6197C86.7381 13.1763 86.5761 12.6128 86.6324 11.9291C86.6936 11.185 87.0288 10.6389 87.6381 10.291C88.2519 9.94354 89.1124 9.81532 90.2193 9.90638L91.3285 9.99763L91.3871 9.28603C91.4341 8.71397 91.3019 8.3004 90.9905 8.04534C90.684 7.78601 90.2471 7.63301 89.6797 7.58633C89.4332 7.56605 89.1518 7.571 88.8356 7.60118C88.5194 7.63135 88.1651 7.6982 87.7726 7.8017L87.58 7.06944C88.0352 6.94301 88.4446 6.86196 88.8081 6.82631C89.1762 6.79104 89.53 6.78737 89.8695 6.8153C90.73 6.88608 91.3614 7.15107 91.7637 7.61027C92.1711 8.06521 92.3463 8.63917 92.2893 9.33216L91.984 13.0436ZM89.0014 13.6973C89.4014 13.7302 89.7838 13.6633 90.1487 13.4967C90.5136 13.33 90.8313 13.0822 91.1018 12.7533L91.274 10.6604L90.0601 10.5605C89.1904 10.489 88.5708 10.5925 88.2014 10.8712C87.8323 11.1452 87.6272 11.5333 87.5858 12.0356C87.5441 12.5426 87.6382 12.9366 87.8679 13.2177C88.098 13.4942 88.4758 13.6541 89.0014 13.6973Z" fill="#282828"/>
<path d="M98.3591 15.5112L100.151 8.38288L100.992 8.59445L100.255 11.5272L101.824 11.9214L104.774 9.54485L105.819 9.80762L102.465 12.4723L104.455 17.0434L103.335 16.7619L101.616 12.6919L100.061 12.3012L99.2009 15.7228L98.3591 15.5112Z" fill="#282828"/>
<path d="M117.669 14.3765L117.266 15.0563L114.756 13.9644L112.137 19.9852L111.341 19.6388L113.96 13.6181L111.438 12.5205L111.751 11.8016L117.669 14.3765Z" fill="#282828"/>
<path d="M128.094 20.486L124.1 26.6559L123.342 26.1652L125.392 22.998C125.628 22.6337 125.866 22.279 126.106 21.9341C126.346 21.5891 126.565 21.2891 126.764 21.034L120.609 24.3962L119.622 23.7571L123.617 17.5873L124.375 18.078L122.336 21.2276C122.09 21.6075 121.84 21.9798 121.588 22.3444C121.335 22.7089 121.136 22.986 120.991 23.1756L127.078 19.8279L128.094 20.486Z" fill="#282828"/>
<path d="M129.051 30.4426L134 25.0085L134.641 25.5929L132.605 27.8287L133.801 28.9175L137.524 28.2183L138.321 28.9441L134.105 29.706L133.698 34.6752L132.844 33.8975L133.253 29.4981L132.068 28.4187L129.692 31.0271L129.051 30.4426Z" fill="#282828"/>
<path d="M141.384 41.4855C141.149 41.6705 141.009 41.8466 140.962 42.014C140.92 42.1784 140.939 42.3651 141.021 42.5741L140.373 42.7818C140.233 42.5359 140.159 42.2763 140.151 42.003C140.144 41.7296 140.244 41.4541 140.453 41.1763C140.027 41.1858 139.622 41.0949 139.239 40.9035C138.863 40.7129 138.525 40.4271 138.224 40.0461C137.773 39.4745 137.58 38.8985 137.646 38.3181C137.711 37.7376 138.013 37.235 138.551 36.8101C139.137 36.3476 139.765 36.2207 140.435 36.4294C141.108 36.6417 141.788 37.1838 142.476 38.0558L143.166 38.9296L143.726 38.4874C144.177 38.1319 144.389 37.7532 144.364 37.3515C144.344 36.9505 144.159 36.5265 143.806 36.0795C143.653 35.8853 143.457 35.6828 143.22 35.4721C142.982 35.2613 142.692 35.0476 142.348 34.831L142.753 34.1909C143.156 34.4378 143.494 34.6821 143.768 34.9237C144.045 35.169 144.288 35.4254 144.499 35.6929C145.034 36.3707 145.271 37.0133 145.209 37.6207C145.154 38.2289 144.853 38.7483 144.307 39.179L141.384 41.4855ZM138.872 39.7487C139.121 40.0638 139.43 40.2981 139.801 40.4515C140.172 40.6048 140.57 40.6684 140.995 40.6422L142.643 39.3415L141.889 38.3852C141.349 37.7001 140.85 37.3174 140.395 37.237C139.943 37.1537 139.519 37.2682 139.123 37.5804C138.724 37.8954 138.5 38.2328 138.451 38.5925C138.405 38.9493 138.546 39.3347 138.872 39.7487Z" fill="#282828"/>
<path d="M152.989 61.592L151.623 57.7243L148.918 57.7815L148.639 56.9895L158.768 56.7885L159.162 57.904L151.157 64.1177L150.849 63.2465L152.989 61.592ZM152.489 57.7376L153.657 61.0443L158.172 57.6007L152.489 57.7376Z" fill="#282828"/>
<path d="M152.396 69.0809L153.112 68.9538L153.321 70.1324L159.118 69.1048L158.909 67.9261L159.633 67.7978L159.958 69.6312L158.249 70.0977C158.888 70.2783 159.407 70.5369 159.808 70.8734C160.215 71.2137 160.478 71.7216 160.597 72.397C160.631 72.5854 160.647 72.7556 160.645 72.9075C160.645 73.0641 160.638 73.2287 160.626 73.4014L159.777 73.3032C159.794 73.1342 159.801 72.9861 159.798 72.8587C159.8 72.7352 159.787 72.5953 159.759 72.4391C159.655 71.8555 159.368 71.3947 158.895 71.0566C158.428 70.7177 157.741 70.4958 156.837 70.3908L153.473 70.9871L153.737 72.4759L153.02 72.6029L152.396 69.0809ZM158.188 72.8811L159.601 72.6306L160.472 72.533L160.626 73.4014L158.335 73.7082L158.188 72.8811Z" fill="#282828"/>
<path d="M154.332 85.9911C154.171 85.7503 154.046 85.4577 153.959 85.1133C153.871 84.7689 153.825 84.4498 153.822 84.1558C153.813 83.4185 154.003 82.8377 154.39 82.4132C154.777 81.9935 155.267 81.7803 155.86 81.7736L160.557 81.7205L160.537 79.9846L161.265 79.9764L161.285 81.7123L162.978 81.6931L163.093 82.5599L161.294 82.5802L161.324 85.17L160.594 85.0593L160.566 82.5884L155.891 82.6413C155.466 82.6461 155.138 82.7641 154.908 82.9954C154.682 83.2313 154.572 83.6223 154.578 84.1682C154.581 84.4482 154.617 84.7068 154.685 84.9441C154.753 85.1813 154.842 85.402 154.951 85.6061L154.332 85.9911Z" fill="#282828"/>
<path d="M157.515 92.4002L158.318 92.5238L157.484 97.934L156.682 97.8104L157.515 92.4002Z" fill="#282828"/>
<path d="M149.969 107.364L156.228 109.418L157.345 106.012L151.087 103.959L151.359 103.128L158.343 105.419L156.68 110.487L149.697 108.196L149.969 107.364Z" fill="#282828"/>
<path d="M152.555 120.048C152.25 120.632 151.868 121.021 151.407 121.218C150.946 121.414 150.423 121.454 149.836 121.338C149.254 121.223 148.625 120.99 147.951 120.638C147.298 120.296 146.764 119.902 146.35 119.454C145.934 119.011 145.676 118.526 145.577 118C145.48 117.481 145.581 116.934 145.881 116.359C146.268 115.618 146.835 115.162 147.584 114.989L144.444 113.35L144.74 112.525L153.849 117.281L153.519 117.914L152.512 117.499C152.722 117.903 152.836 118.324 152.856 118.76C152.873 119.201 152.773 119.63 152.555 120.048ZM151.968 119.568C152.178 119.167 152.24 118.75 152.156 118.316C152.076 117.885 151.948 117.505 151.772 117.176L148.396 115.414C148.033 115.455 147.694 115.579 147.382 115.784C147.069 115.989 146.824 116.262 146.647 116.601C146.332 117.205 146.319 117.769 146.608 118.294C146.895 118.823 147.494 119.325 148.404 119.8C148.983 120.103 149.504 120.301 149.965 120.394C150.427 120.488 150.827 120.468 151.166 120.334C151.502 120.204 151.769 119.949 151.968 119.568Z" fill="#282828"/>
<path d="M139.76 128.687C139.522 128.507 139.316 128.416 139.142 128.414C138.972 128.415 138.797 128.481 138.615 128.613L138.25 128.04C138.452 127.841 138.684 127.704 138.946 127.627C139.209 127.55 139.501 127.577 139.822 127.708C139.705 127.298 139.69 126.884 139.777 126.465C139.866 126.052 140.056 125.652 140.348 125.265C140.786 124.683 141.293 124.35 141.871 124.265C142.449 124.18 143.012 124.344 143.56 124.757C144.157 125.206 144.439 125.781 144.408 126.482C144.374 127.186 144.023 127.982 143.355 128.87L142.686 129.759L143.256 130.188C143.715 130.533 144.135 130.642 144.517 130.515C144.9 130.395 145.263 130.107 145.605 129.652C145.754 129.454 145.9 129.214 146.043 128.93C146.187 128.647 146.319 128.312 146.441 127.925L147.163 128.153C147.027 128.605 146.877 128.995 146.713 129.321C146.546 129.651 146.361 129.952 146.156 130.224C145.636 130.914 145.075 131.306 144.472 131.401C143.87 131.503 143.291 131.345 142.736 130.926L139.76 128.687ZM140.8 125.816C140.559 126.136 140.411 126.495 140.357 126.893C140.303 127.29 140.343 127.691 140.477 128.096L142.155 129.359L142.887 128.386C143.412 127.689 143.655 127.109 143.617 126.648C143.582 126.19 143.364 125.809 142.961 125.506C142.555 125.2 142.171 125.069 141.811 125.113C141.454 125.16 141.117 125.394 140.8 125.816Z" fill="#282828"/>
<path d="M134.271 132.761L139.342 138.082L138.713 138.681L136.627 136.491L135.456 137.607L135.891 141.37L135.11 142.114L134.648 137.855L129.72 137.097L130.556 136.301L134.916 137.02L136.076 135.914L133.643 133.36L134.271 132.761Z" fill="#282828"/>
<path d="M124.92 149.695L124.56 148.991L126.824 147.452L123.132 142.023L123.849 141.535L127.541 146.964L129.816 145.417L130.257 146.066L124.92 149.695Z" fill="#282828"/>
<path d="M114.186 155.246L111.102 148.574L111.922 148.195L113.505 151.62C113.687 152.014 113.86 152.404 114.023 152.791C114.187 153.178 114.323 153.524 114.433 153.828L114.876 146.829L115.944 146.336L119.028 153.007L118.208 153.386L116.634 149.981C116.444 149.57 116.262 149.16 116.089 148.752C115.916 148.343 115.788 148.027 115.705 147.804L115.285 154.737L114.186 155.246Z" fill="#282828"/>
<path d="M105.259 150.739L107.211 157.825L106.374 158.056L105.571 155.14L104.012 155.57L102.615 159.091L101.576 159.378L103.183 155.406L99.1985 152.409L100.312 152.102L103.814 154.797L105.359 154.371L104.422 150.97L105.259 150.739Z" fill="#282828"/>
<path d="M89.3364 155.27C89.3052 154.973 89.2312 154.76 89.1145 154.631C88.9982 154.508 88.8299 154.424 88.6096 154.382L88.7798 153.723C89.0626 153.736 89.3216 153.812 89.5568 153.952C89.792 154.091 89.9713 154.323 90.0946 154.648C90.3142 154.283 90.6072 153.989 90.9734 153.767C91.3354 153.551 91.7578 153.418 92.2404 153.367C92.9645 153.291 93.5544 153.435 94.0104 153.8C94.4664 154.165 94.7302 154.689 94.8019 155.371C94.8799 156.114 94.6519 156.713 94.1179 157.168C93.5792 157.623 92.7576 157.909 91.653 158.025L90.5461 158.141L90.6207 158.851C90.6807 159.422 90.8874 159.804 91.2408 159.997C91.59 160.195 92.0478 160.264 92.614 160.204C92.86 160.178 93.1355 160.121 93.4406 160.033C93.7457 159.945 94.0815 159.813 94.4479 159.639L94.7731 160.322C94.3493 160.531 93.9621 160.687 93.6116 160.789C93.2564 160.892 92.9094 160.962 92.5706 160.997C91.712 161.087 91.0424 160.944 90.5617 160.568C90.0769 160.196 89.7982 159.665 89.7255 158.973L89.3364 155.27ZM92.1458 154.074C91.7466 154.116 91.3833 154.252 91.0557 154.484C90.7281 154.715 90.4619 155.018 90.2571 155.391L90.4766 157.48L91.6879 157.352C92.5558 157.261 93.1454 157.044 93.4566 156.702C93.7684 156.364 93.8979 155.945 93.8452 155.444C93.7921 154.938 93.6265 154.568 93.3486 154.334C93.0712 154.105 92.6702 154.019 92.1458 154.074Z" fill="#282828"/>
</svg>
