<svg width="2112" height="435" viewBox="0 0 2112 435" fill="none" xmlns="http://www.w3.org/2000/svg">
<path d="M2078.04 72.3458L31.0933 70.7285L32.1037 181.614L2079.05 183.232L2078.04 72.3458Z" fill="white"/>
<path d="M2078.61 181.257L32.2019 178.906L33.9151 359.534L2080.33 361.885L2078.61 181.257Z" fill="white"/>
<path d="M2079.59 146.326C1875.08 153.422 1873.26 76.1471 1668.66 75.953C1464.07 75.7589 1464.64 145.743 1259.99 145.548C1055.35 145.354 1054.67 75.3706 850 75.1765C645.328 74.9823 645.977 144.966 441.28 144.772C236.583 144.578 236.854 81.8848 32.2145 74.4008C25.942 74.1907 1.44455 102.073 1.37692 94.7832C1.3093 87.4933 61.507 87.5504 61.4394 80.2604C61.3717 72.9704 1.17404 72.9133 1.10642 65.6234C1.03879 58.3334 61.2365 58.3905 61.1689 51.1005C61.1012 43.8106 23.4137 1.72664 29.6824 1.52846C234.187 -5.56746 236.007 71.7073 440.604 71.9013C645.201 72.0954 644.627 2.11177 849.274 2.30589C1053.92 2.5 1054.6 72.4837 1259.27 72.6779C1463.94 72.872 1463.29 2.88831 1667.99 3.08248C1872.68 3.27664 1872.41 65.9696 2077.05 73.4536C2083.33 73.6636 2107.82 45.7811 2107.89 53.0711C2107.96 60.3611 2047.76 60.304 2047.83 67.5939C2047.9 74.8839 2108.09 74.941 2108.16 82.231C2108.23 89.5209 2047.52 94.0706 2048.39 101.303C2051.46 126.5 2085.85 146.099 2079.59 146.326Z" fill="#5985C2"/>
<path d="M2080.78 289.742C1876.27 296.838 1874.45 219.563 1669.85 219.369C1465.26 219.175 1465.83 289.159 1261.18 288.964C1056.54 288.77 1055.86 218.787 851.19 218.592C646.518 218.398 647.167 288.382 442.47 288.188C237.773 287.994 238.044 225.301 33.4047 217.817C27.1322 217.607 2.63477 245.489 2.56715 238.199C2.49952 230.909 62.6972 230.966 62.6296 223.676C62.562 216.386 2.36426 216.329 2.29664 209.039C2.22901 201.749 62.4267 201.806 62.3591 194.516C62.2914 187.226 24.6039 145.143 30.8723 144.915C235.377 137.819 237.197 215.094 441.794 215.288C646.391 215.482 645.817 145.499 850.464 145.693C1055.11 145.887 1055.79 215.871 1260.46 216.065C1465.13 216.259 1464.48 146.275 1669.18 146.469C1873.87 146.664 1873.6 209.356 2078.24 216.841C2084.52 217.051 2109.01 189.168 2109.08 196.458C2109.15 203.748 2048.95 203.691 2049.02 210.981C2049.09 218.271 2109.28 218.328 2109.35 225.618C2109.42 232.908 2048.71 237.457 2049.58 244.69C2052.65 269.916 2087.04 289.515 2080.78 289.742Z" fill="#5985C2"/>
<path d="M2081.96 433.16C1877.46 440.256 1875.64 362.981 1671.04 362.787C1466.45 362.593 1467.02 432.576 1262.37 432.382C1057.73 432.188 1057.05 362.205 852.38 362.01C647.708 361.816 648.357 431.8 443.66 431.606C238.962 431.411 239.234 368.719 34.5941 361.235C28.3214 360.995 3.82395 388.878 3.7566 381.617C3.68924 374.356 63.8867 374.384 63.819 367.094C63.7514 359.804 3.55372 359.747 3.48609 352.457C3.41846 345.167 63.6162 345.224 63.5485 337.934C63.4809 330.644 25.7933 288.56 32.0618 288.333C236.566 281.237 238.386 358.512 442.983 358.706C647.58 358.9 647.006 288.917 851.653 289.111C1056.3 289.305 1056.97 359.288 1261.65 359.483C1466.32 359.677 1465.67 289.693 1670.37 289.887C1875.06 290.082 1874.79 352.774 2079.43 360.258C2085.7 360.469 2110.2 332.586 2110.27 339.876C2110.34 347.166 2050.14 347.109 2050.21 354.399C2050.28 361.689 2110.47 361.746 2110.54 369.036C2110.61 376.326 2049.9 380.875 2050.77 388.108C2053.84 413.334 2088.23 432.933 2081.96 433.16Z" fill="#5985C2"/>
</svg>
