<svg xmlns="http://www.w3.org/2000/svg" viewBox="0 0 2583.48 193.86"><defs><style>.cls-1{fill:#fff;}.cls-2{fill:#5985c2;}</style></defs><g id="Layer_2" data-name="Layer 2"><g id="Layer_1-2" data-name="Layer 1"><path class="cls-1" d="M2570.74,93.15c-116.23,2.32-116.51-26-232.76-26s-116.25,26-232.49,26-116.25-26-232.5-26-116.25,26-232.5,26-116.25-26-232.49-26-116.25,26-232.5,26-116.25-26-232.5-26-116.24,26-232.49,26-116.25-26-232.5-26-116.25,26-232.5,26-116-23.69-232.25-26C10.94,67.11,0,77.84,0,75.52s26-2.31,26-4.63S0,68.57,0,66.26s26-2.32,26-4.64S0,59.31,0,57s26-2.32,26-4.64S0,50,0,47.72s26-2.32,26-4.64S0,40.77,0,38.45s26-2.32,26-4.65S10.42,16.21,12.74,16.17c116.22-2.32,116.51,26,232.75,26s116.25-26,232.5-26,116.25,26,232.5,26,116.25-26,232.49-26,116.25,26,232.5,26,116.25-26,232.5-26,116.25,26,232.49,26,116.25-26,232.5-26,116.25,26,232.49,26,116.26-26,232.51-26,116,23.68,232.25,26c2.31.05,13.26-10.68,13.26-8.36s-26,2.31-26,4.63,26,2.31,26,4.63-26,2.32-26,4.64,26,2.31,26,4.63-26,2.32-26,4.64,26,2.31,26,4.63-26,2.32-26,4.63,26,2.32,26,4.64-26.18,3.84-25.92,6.14C2558.6,86,2573.06,93.11,2570.74,93.15Z"/><path class="cls-1" d="M2570.9,176.35c-116.19,3.78-116.67-26-232.92-26s-116.25,26-232.49,26-116.25-26-232.5-26-116.25,26-232.5,26-116.25-26-232.49-26-116.25,26-232.5,26-116.25-26-232.5-26-116.24,26-232.49,26-116.25-26-232.5-26-116.25,26-232.5,26-115.9-22.21-232.09-26C9.64,150.24,0,159.57,0,155.79s26-3.78,26-7.56-26-3.78-26-7.56,26-3.78,26-7.56-26-3.78-26-7.56,26-3.78,26-7.56-26-3.78-26-7.57,26-3.78,26-7.56S0,99.08,0,95.29s26-3.78,26-7.57S8.79,67.29,12.58,67.16c116.18-3.78,116.67,26,232.91,26s116.25-26,232.5-26,116.25,26,232.5,26,116.25-26,232.49-26,116.25,26,232.5,26,116.25-26,232.5-26,116.25,26,232.49,26,116.25-26,232.5-26,116.25,26,232.49,26,116.26-26,232.51-26,115.89,22.21,232.08,26c3.78.12,13.43-9.21,13.43-5.43s-26,3.78-26,7.56,26,3.78,26,7.56-26,3.78-26,7.56,26,3.78,26,7.56-26,3.78-26,7.56,26,3.79,26,7.57-26,3.78-26,7.56,26,3.78,26,7.57-26.42,5.75-25.86,9.5C2559.21,168.27,2574.68,176.22,2570.9,176.35Z"/><path class="cls-2" d="M2570.65,59.61c-116.24,1.52-116.42-26-232.67-26s-116.25,26-232.49,26-116.25-26-232.5-26-116.25,26-232.5,26-116.25-26-232.49-26-116.25,26-232.5,26-116.25-26-232.5-26-116.24,26-232.49,26-116.25-26-232.5-26-116.25,26-232.5,26-116.1-24.48-232.34-26C11.65,33.59,0,45.08,0,43.56S26,42,26,40.51,0,39,0,37.46s26-1.52,26-3S0,32.89,0,31.37s26-1.53,26-3.05S0,26.8,0,25.27s26-1.52,26-3.05-26-1.52-26-3,26-1.53,26-3.05S11.3.08,12.83.06c116.24-1.53,116.42,26,232.66,26S361.74.06,478,.06s116.25,26,232.5,26S826.74.06,943,.06s116.25,26,232.5,26,116.25-26,232.5-26,116.25,26,232.49,26,116.25-26,232.5-26,116.25,26,232.49,26S2221.72.06,2338,.06s116.09,24.47,232.34,26c1.52,0,13.17-11.48,13.17-9.95s-26,1.52-26,3.05,26,1.52,26,3-26,1.53-26,3.05,26,1.53,26,3.05-26,1.52-26,3.05,26,1.52,26,3-26,1.52-26,3.05,26,1.52,26,3-26.09,2.68-25.95,4.2C2558.25,52.81,2572.17,59.59,2570.65,59.61Z"/><path class="cls-2" d="M2570.65,126.7c-116.24,1.53-116.42-26-232.67-26s-116.25,26-232.49,26-116.25-26-232.5-26-116.25,26-232.5,26-116.25-26-232.49-26-116.25,26-232.5,26-116.25-26-232.5-26-116.24,26-232.49,26-116.25-26-232.5-26-116.25,26-232.5,26-116.1-24.47-232.34-26c-1.52,0-13.17,11.48-13.17,10s26-1.53,26-3-26-1.53-26-3,26-1.52,26-3S0,100,0,98.46s26-1.52,26-3-26-1.53-26-3,26-1.53,26-3.05-26-1.53-26-3,26-1.53,26-3.06-14.7-16-13.17-16c116.24-1.53,116.42,26,232.66,26s116.25-26,232.5-26,116.25,26,232.5,26,116.25-26,232.49-26,116.25,26,232.5,26,116.25-26,232.5-26,116.25,26,232.49,26,116.25-26,232.5-26,116.25,26,232.49,26,116.26-26,232.51-26,116.09,24.47,232.34,26c1.52,0,13.17-11.47,13.17-10s-26,1.53-26,3,26,1.52,26,3-26,1.52-26,3,26,1.52,26,3.05-26,1.52-26,3,26,1.53,26,3-26,1.53-26,3.05,26,1.53,26,3-26.09,2.69-25.95,4.21C2558.25,119.9,2572.17,126.68,2570.65,126.7Z"/><path class="cls-2" d="M2570.65,193.8c-116.24,1.53-116.42-26-232.67-26s-116.25,26-232.49,26-116.25-26-232.5-26-116.25,26-232.5,26-116.25-26-232.49-26-116.25,26-232.5,26-116.25-26-232.5-26-116.24,26-232.49,26-116.25-26-232.5-26-116.25,26-232.5,26-116.1-24.48-232.34-26C11.65,167.78,0,179.27,0,177.75s26-1.52,26-3.05-26-1.52-26-3,26-1.53,26-3-26-1.53-26-3.05,26-1.53,26-3.05-26-1.52-26-3,26-1.52,26-3.05-26-1.52-26-3,26-1.53,26-3.05-14.7-16-13.17-16.06c116.24-1.53,116.42,26,232.66,26s116.25-26,232.5-26,116.25,26,232.5,26,116.25-26,232.49-26,116.25,26,232.5,26,116.25-26,232.5-26,116.25,26,232.49,26,116.25-26,232.5-26,116.25,26,232.49,26,116.26-26,232.51-26,116.09,24.48,232.34,26c1.52,0,13.17-11.47,13.17-9.95s-26,1.52-26,3,26,1.52,26,3-26,1.53-26,3.05,26,1.53,26,3.05-26,1.53-26,3,26,1.52,26,3.05-26,1.52-26,3,26,1.52,26,3.05-26.09,2.68-25.95,4.21C2558.25,187,2572.17,193.78,2570.65,193.8Z"/></g></g></svg>