<svg xmlns="http://www.w3.org/2000/svg" viewBox="0 0 2923 187.82"><defs><style>.cls-1{fill:#fff;}.cls-2{fill:#5985c2;}</style></defs><g id="Layer_2" data-name="Layer 2"><g id="Layer_1-2" data-name="Layer 1"><path class="cls-1" d="M2913.18,87.14c-96.75,1.7-96.94-20-193.71-20s-96.76,20-193.53,20-96.76-20-193.53-20-96.77,20-193.53,20-96.77-20-193.53-20-96.77,20-193.54,20-96.76-20-193.53-20-96.77,20-193.53,20-96.77-20-193.54-20-96.76,20-193.53,20-96.76-20-193.53-20-96.77,20-193.53,20-96.77-20-193.54-20-96.77,20-193.54,20-96.61-18.3-193.36-20C8.48,67.11,0,75.44,0,73.74S20,72,20,70.35,0,68.65,0,67s20-1.7,20-3.4-20-1.7-20-3.4,20-1.69,20-3.39-20-1.7-20-3.4,20-1.7,20-3.4-20-1.7-20-3.4,20-1.7,20-3.4-20-1.7-20-3.4,20-1.7,20-3.4S0,34.66,0,33s20-1.7,20-3.41S8.12,16.18,9.82,16.15c96.75-1.71,96.94,20,193.71,20s96.76-20,193.53-20,96.76,20,193.53,20,96.77-20,193.53-20,96.77,20,193.53,20,96.77-20,193.54-20,96.76,20,193.53,20,96.77-20,193.53-20,96.77,20,193.54,20,96.76-20,193.53-20,96.76,20,193.53,20,96.77-20,193.53-20,96.77,20,193.54,20,96.77-20,193.54-20,96.61,18.3,193.36,20c1.7,0,10.18-8.3,10.18-6.6s-20,1.7-20,3.4,20,1.7,20,3.39-20,1.7-20,3.4,20,1.7,20,3.4-20,1.7-20,3.4,20,1.7,20,3.4-20,1.7-20,3.4,20,1.7,20,3.4-20,1.69-20,3.39,20,1.7,20,3.4-20,1.7-20,3.4,20,1.7,20,3.4-20.13,2.83-19.94,4.52C2903.82,81.65,2914.88,87.11,2913.18,87.14Z"/><path class="cls-1" d="M2913.29,170.33c-96.73,2.78-97.05-20-193.82-20s-96.76,20-193.53,20-96.76-20-193.53-20-96.77,20-193.53,20-96.77-20-193.53-20-96.77,20-193.54,20-96.76-20-193.53-20-96.77,20-193.53,20-96.77-20-193.54-20-96.76,20-193.53,20-96.76-20-193.53-20-96.77,20-193.53,20-96.77-20-193.54-20-96.77,20-193.54,20-96.52-17.23-193.25-20C7.51,150.26,0,157.56,0,154.79s20-2.77,20-5.54S0,146.47,0,143.7s20-2.77,20-5.54-20-2.78-20-5.55,20-2.77,20-5.54S0,124.3,0,121.53s20-2.78,20-5.55-20-2.77-20-5.55,20-2.77,20-5.54S0,102.11,0,99.34s20-2.77,20-5.55S0,91,0,88.24s20-2.77,20-5.55S6.94,67.22,9.71,67.14c96.73-2.77,97.05,20,193.82,20s96.76-20,193.53-20,96.76,20,193.53,20,96.77-20,193.53-20,96.77,20,193.53,20,96.77-20,193.54-20,96.76,20,193.53,20,96.77-20,193.53-20,96.77,20,193.54,20,96.76-20,193.53-20,96.76,20,193.53,20,96.77-20,193.53-20,96.77,20,193.54,20,96.77-20,193.54-20,96.52,17.22,193.25,20c2.78.08,10.29-7.22,10.29-4.45s-20,2.78-20,5.55,20,2.77,20,5.54-20,2.78-20,5.55,20,2.77,20,5.54-20,2.77-20,5.55,20,2.77,20,5.54-20,2.77-20,5.55,20,2.77,20,5.54-20,2.77-20,5.55,20,2.77,20,5.55-20,2.77-20,5.54,20,2.77,20,5.55-20.3,4.25-19.9,7C2904.27,164.2,2916.06,170.25,2913.29,170.33Z"/><path class="cls-2" d="M2913.12,53.59c-96.76,1.12-96.88-20-193.65-20s-96.76,20-193.53,20-96.76-20-193.53-20-96.77,20-193.53,20-96.77-20-193.53-20-96.77,20-193.54,20-96.76-20-193.53-20-96.77,20-193.53,20-96.77-20-193.54-20-96.76,20-193.53,20-96.76-20-193.53-20-96.77,20-193.53,20-96.77-20-193.54-20-96.77,20-193.54,20-96.66-18.88-193.42-20C9,33.58,0,42.47,0,41.35s20-1.11,20-2.23S0,38,0,36.89s20-1.12,20-2.24S0,33.53,0,32.42s20-1.12,20-2.24S0,29.06,0,28s20-1.12,20-2.24S0,24.59,0,23.48s20-1.12,20-2.24S0,20.12,0,19s20-1.12,20-2.23S0,15.65,0,14.53s20-1.12,20-2.25S8.76.06,9.88,0c96.76-1.12,96.88,20,193.65,20S300.29,0,397.06,0s96.76,20,193.53,20S687.36,0,784.12,0s96.77,20,193.53,20,96.77-20,193.54-20S1268,20,1364.72,20s96.77-20,193.53-20S1655,20,1751.79,20s96.76-20,193.53-20,96.76,20,193.53,20,96.77-20,193.53-20,96.77,20,193.54,20,96.77-20,193.54-20,96.66,18.88,193.42,20c1.12,0,10.12-8.88,10.12-7.76s-20,1.11-20,2.23,20,1.12,20,2.24-20,1.11-20,2.23,20,1.12,20,2.24-20,1.11-20,2.23,20,1.12,20,2.24-20,1.12-20,2.23,20,1.12,20,2.24-20,1.11-20,2.23,20,1.12,20,2.24-20,1.12-20,2.24,20,1.12,20,2.24-20.06,2-20,3.09C2903.56,48.38,2914.24,53.58,2913.12,53.59Z"/><path class="cls-2" d="M2913.12,120.69c-96.76,1.12-96.88-20-193.65-20s-96.76,20-193.53,20-96.76-20-193.53-20-96.77,20-193.53,20-96.77-20-193.53-20-96.77,20-193.54,20-96.76-20-193.53-20-96.77,20-193.53,20-96.77-20-193.54-20-96.76,20-193.53,20-96.76-20-193.53-20-96.77,20-193.53,20-96.77-20-193.54-20-96.77,20-193.54,20-96.66-18.89-193.42-20C9,100.67,0,109.57,0,108.45s20-1.12,20-2.23S0,105.1,0,104s20-1.11,20-2.23S0,100.63,0,99.51s20-1.12,20-2.23S0,96.16,0,95s20-1.12,20-2.23S0,91.69,0,90.57s20-1.11,20-2.23S0,87.22,0,86.1,20,85,20,83.86,0,82.74,0,81.62s20-1.12,20-2.24S8.76,67.15,9.88,67.14c96.76-1.12,96.88,20,193.65,20s96.76-20,193.53-20,96.76,20,193.53,20,96.77-20,193.53-20,96.77,20,193.53,20,96.77-20,193.54-20,96.76,20,193.53,20,96.77-20,193.53-20,96.77,20,193.54,20,96.76-20,193.53-20,96.76,20,193.53,20,96.77-20,193.53-20,96.77,20,193.54,20,96.77-20,193.54-20,96.66,18.88,193.42,20c1.12,0,10.12-8.88,10.12-7.77s-20,1.12-20,2.24,20,1.11,20,2.23-20,1.12-20,2.24,20,1.11,20,2.23-20,1.12-20,2.24,20,1.11,20,2.23-20,1.12-20,2.24,20,1.11,20,2.23-20,1.12-20,2.24,20,1.12,20,2.23-20,1.12-20,2.24,20,1.12,20,2.24-20.06,2-20,3.1C2903.56,115.47,2914.24,120.67,2913.12,120.69Z"/><path class="cls-2" d="M2913.12,187.78c-96.76,1.12-96.88-20-193.65-20s-96.76,20-193.53,20-96.76-20-193.53-20-96.77,20-193.53,20-96.77-20-193.53-20-96.77,20-193.54,20-96.76-20-193.53-20-96.77,20-193.53,20-96.77-20-193.54-20-96.76,20-193.53,20-96.76-20-193.53-20-96.77,20-193.53,20-96.77-20-193.54-20-96.77,20-193.54,20-96.66-18.88-193.42-20C9,167.77,0,176.66,0,175.55s20-1.12,20-2.24S0,172.2,0,171.08s20-1.12,20-2.24-20-1.11-20-2.23,20-1.12,20-2.24-20-1.12-20-2.23S20,161,20,159.9s-20-1.12-20-2.23,20-1.12,20-2.24S0,154.31,0,153.2s20-1.12,20-2.24-20-1.12-20-2.24,20-1.12,20-2.24S8.76,134.25,9.88,134.23c96.76-1.12,96.88,20,193.65,20s96.76-20,193.53-20,96.76,20,193.53,20,96.77-20,193.53-20,96.77,20,193.53,20,96.77-20,193.54-20,96.76,20,193.53,20,96.77-20,193.53-20,96.77,20,193.54,20,96.76-20,193.53-20,96.76,20,193.53,20,96.77-20,193.53-20,96.77,20,193.54,20,96.77-20,193.54-20,96.66,18.89,193.42,20c1.12,0,10.12-8.88,10.12-7.76s-20,1.12-20,2.23,20,1.12,20,2.24-20,1.11-20,2.23,20,1.12,20,2.24-20,1.11-20,2.23,20,1.12,20,2.24-20,1.12-20,2.23,20,1.12,20,2.24-20,1.11-20,2.23,20,1.12,20,2.24-20,1.12-20,2.24,20,1.12,20,2.24-20.06,2-20,3.09C2903.56,182.57,2914.24,187.77,2913.12,187.78Z"/></g></g></svg>