<svg xmlns="http://www.w3.org/2000/svg" viewBox="0 0 2587.48 197.84"><defs><style>.cls-1{fill:#fff;}.cls-2{fill:#5985c2;}</style></defs><g id="Layer_2" data-name="Layer 2"><g id="Layer_1-2" data-name="Layer 1"><path class="cls-1" d="M2572.78,97.15c-116.23,2.32-116.55-30-232.8-30s-116.25,30-232.49,30-116.25-30-232.5-30-116.25,30-232.5,30-116.25-30-232.49-30-116.25,30-232.5,30-116.25-30-232.5-30-116.24,30-232.49,30-116.25-30-232.5-30-116.25,30-232.5,30-116-27.68-232.21-30C13,67.1,0,79.83,0,77.51s30-2.31,30-4.63S0,70.57,0,68.25s30-2.32,30-4.63S0,61.3,0,59s30-2.32,30-4.63S0,52,0,49.71s30-2.32,30-4.63S0,42.76,0,40.44s30-2.32,30-4.64S12.38,16.2,14.7,16.16c116.22-2.32,116.55,30,232.79,30s116.25-30,232.5-30,116.25,30,232.5,30,116.25-30,232.49-30,116.25,30,232.5,30,116.25-30,232.5-30,116.25,30,232.49,30,116.25-30,232.5-30,116.25,30,232.49,30,116.26-30,232.51-30,116,27.68,232.21,30c2.31.05,15.3-12.68,15.3-10.36s-30,2.31-30,4.63,30,2.32,30,4.63-30,2.32-30,4.64,30,2.32,30,4.63-30,2.32-30,4.64,30,2.31,30,4.63-30,2.32-30,4.64,30,2.32,30,4.63-30.17,4-29.92,6.26C2558.64,89.07,2575.1,97.1,2572.78,97.15Z"/><path class="cls-1" d="M2573,180.34c-116.18,3.78-116.73-30-233-30s-116.25,30-232.49,30-116.25-30-232.5-30-116.25,30-232.5,30-116.25-30-232.49-30-116.25,30-232.5,30-116.25-30-232.5-30-116.24,30-232.49,30-116.25-30-232.5-30-116.25,30-232.5,30-115.83-26.22-232-30C11.71,150.23,0,161.57,0,157.78s30-3.78,30-7.56-30-3.78-30-7.56,30-3.78,30-7.56-30-3.78-30-7.56,30-3.78,30-7.56S0,116.2,0,112.42s30-3.79,30-7.57S0,101.07,0,97.29s30-3.79,30-7.57S10.73,67.28,14.51,67.16c116.19-3.79,116.74,30,233,30s116.25-30,232.5-30,116.25,30,232.5,30,116.25-30,232.49-30,116.25,30,232.5,30,116.25-30,232.5-30,116.25,30,232.49,30,116.25-30,232.5-30,116.25,30,232.49,30,116.26-30,232.51-30,115.83,26.21,232,30c3.78.12,15.49-11.21,15.49-7.43s-30,3.78-30,7.56,30,3.78,30,7.56-30,3.78-30,7.56,30,3.78,30,7.56-30,3.78-30,7.57,30,3.78,30,7.56-30,3.78-30,7.57,30,3.78,30,7.56-30.39,5.93-29.85,9.68C2559.27,171.43,2576.75,180.22,2573,180.34Z"/><path class="cls-2" d="M2572.67,63.6c-116.23,1.53-116.44-30-232.69-30s-116.25,30-232.49,30-116.25-30-232.5-30-116.25,30-232.5,30-116.25-30-232.49-30-116.25,30-232.5,30-116.25-30-232.5-30-116.24,30-232.49,30-116.25-30-232.5-30-116.25,30-232.5,30S131.44,35.13,15.2,33.6C13.67,33.58,0,47.08,0,45.55s30-1.52,30-3S0,41,0,39.46s30-1.53,30-3.05-30-1.53-30-3,30-1.52,30-3.05-30-1.52-30-3,30-1.52,30-3.05S0,22.69,0,21.16s30-1.52,30-3.05S13.28.07,14.8.05c116.24-1.52,116.45,30,232.69,30S363.74.05,480,.05s116.25,30,232.5,30S828.74.05,945,.05s116.25,30,232.5,30,116.25-30,232.5-30,116.25,30,232.49,30,116.25-30,232.5-30,116.25,30,232.49,30S2223.72.05,2340,.05s116.07,28.48,232.31,30c1.52,0,15.2-13.47,15.2-11.95s-30,1.52-30,3,30,1.52,30,3.05-30,1.52-30,3,30,1.53,30,3.05-30,1.53-30,3.05,30,1.52,30,3-30,1.52-30,3,30,1.52,30,3.05-30.08,2.75-29.95,4.28C2558.27,55.87,2574.2,63.58,2572.67,63.6Z"/><path class="cls-2" d="M2572.67,130.69c-116.23,1.53-116.44-30-232.69-30s-116.25,30-232.49,30-116.25-30-232.5-30-116.25,30-232.5,30-116.25-30-232.49-30-116.25,30-232.5,30-116.25-30-232.5-30-116.24,30-232.49,30-116.25-30-232.5-30-116.25,30-232.5,30-116.07-28.48-232.31-30c-1.53,0-15.2,13.47-15.2,12s30-1.53,30-3.05-30-1.52-30-3,30-1.52,30-3-30-1.52-30-3,30-1.52,30-3-30-1.53-30-3,30-1.53,30-3-30-1.53-30-3,30-1.53,30-3.06-16.72-18-15.2-18c116.24-1.53,116.45,30,232.69,30s116.25-30,232.5-30,116.25,30,232.5,30,116.25-30,232.49-30,116.25,30,232.5,30,116.25-30,232.5-30,116.25,30,232.49,30,116.25-30,232.5-30,116.25,30,232.49,30,116.26-30,232.51-30,116.07,28.47,232.31,30c1.52,0,15.2-13.48,15.2-12s-30,1.52-30,3,30,1.53,30,3.05-30,1.53-30,3,30,1.53,30,3-30,1.52-30,3,30,1.52,30,3-30,1.53-30,3,30,1.53,30,3.06-30.08,2.75-29.95,4.27C2558.27,123,2574.2,130.67,2572.67,130.69Z"/><path class="cls-2" d="M2572.67,197.79c-116.23,1.53-116.44-30-232.69-30s-116.25,30-232.49,30-116.25-30-232.5-30-116.25,30-232.5,30-116.25-30-232.49-30-116.25,30-232.5,30-116.25-30-232.5-30-116.24,30-232.49,30-116.25-30-232.5-30-116.25,30-232.5,30-116.07-28.47-232.31-30c-1.53,0-15.2,13.48-15.2,12s30-1.52,30-3-30-1.53-30-3,30-1.53,30-3.05-30-1.53-30-3S30,166,30,164.5,0,163,0,161.45s30-1.52,30-3-30-1.52-30-3.05,30-1.52,30-3-16.72-18-15.2-18.06c116.24-1.52,116.45,30,232.69,30s116.25-30,232.5-30,116.25,30,232.5,30,116.25-30,232.49-30,116.25,30,232.5,30,116.25-30,232.5-30,116.25,30,232.49,30,116.25-30,232.5-30,116.25,30,232.49,30,116.26-30,232.51-30,116.07,28.48,232.31,30c1.52,0,15.2-13.47,15.2-12s-30,1.53-30,3.05,30,1.52,30,3-30,1.52-30,3.05,30,1.52,30,3.05-30,1.52-30,3,30,1.53,30,3.05-30,1.53-30,3,30,1.53,30,3.05-30.08,2.76-29.95,4.28C2558.27,190.06,2574.2,197.77,2572.67,197.79Z"/></g></g></svg>