<svg xmlns="http://www.w3.org/2000/svg" viewBox="0 0 2931 195.8"><defs><style>.cls-1{fill:#fff;}.cls-2{fill:#5985c2;}</style></defs><g id="Layer_2" data-name="Layer 2"><g id="Layer_1-2" data-name="Layer 1"><path class="cls-1" d="M2917.25,95.12c-96.75,1.71-97-28-193.78-28s-96.76,28-193.53,28-96.76-28-193.53-28-96.77,28-193.53,28-96.77-28-193.53-28-96.77,28-193.54,28-96.76-28-193.53-28-96.77,28-193.53,28-96.77-28-193.54-28-96.76,28-193.53,28-96.76-28-193.53-28-96.77,28-193.53,28-96.77-28-193.54-28-96.77,28-193.54,28S111,68.83,14.25,67.13C12.55,67.1,0,79.43,0,77.73s28-1.7,28-3.4S0,72.64,0,70.94s28-1.7,28-3.4-28-1.7-28-3.4,28-1.7,28-3.4S0,59.05,0,57.35s28-1.7,28-3.4-28-1.7-28-3.4,28-1.7,28-3.4-28-1.7-28-3.4,28-1.7,28-3.4S0,38.65,0,37s28-1.71,28-3.41S12.05,16.17,13.75,16.14c96.75-1.71,97,28,193.78,28s96.76-28,193.53-28,96.76,28,193.53,28,96.77-28,193.53-28,96.77,28,193.53,28,96.77-28,193.54-28,96.76,28,193.53,28,96.77-28,193.53-28,96.77,28,193.54,28,96.76-28,193.53-28,96.76,28,193.53,28,96.77-28,193.53-28,96.77,28,193.54,28,96.77-28,193.54-28,96.54,26.3,193.29,28c1.7,0,14.25-12.3,14.25-10.6s-28,1.7-28,3.4,28,1.69,28,3.39-28,1.7-28,3.4,28,1.7,28,3.4-28,1.7-28,3.39,28,1.7,28,3.4-28,1.7-28,3.4,28,1.7,28,3.4-28,1.7-28,3.4,28,1.7,28,3.4-28,1.7-28,3.4,28,1.7,28,3.4-28.1,3-27.94,4.72C2903.89,87.81,2919,95.09,2917.25,95.12Z"/><path class="cls-1" d="M2917.4,178.32c-96.72,2.77-97.16-28-193.93-28s-96.76,28-193.53,28-96.76-28-193.53-28-96.77,28-193.53,28-96.77-28-193.53-28-96.77,28-193.54,28-96.76-28-193.53-28-96.77,28-193.53,28-96.77-28-193.54-28-96.76,28-193.53,28-96.76-28-193.53-28-96.77,28-193.53,28-96.77-28-193.54-28-96.77,28-193.54,28-96.41-25.22-193.14-28C11.63,150.25,0,161.55,0,158.78s28-2.77,28-5.55-28-2.77-28-5.54,28-2.77,28-5.55S0,139.37,0,136.6s28-2.77,28-5.54-28-2.77-28-5.55,28-2.77,28-5.54-28-2.78-28-5.55,28-2.77,28-5.54S0,106.1,0,103.33s28-2.78,28-5.55S0,95,0,92.23s28-2.77,28-5.55S10.82,67.21,13.6,67.13c96.72-2.77,97.16,28,193.93,28s96.76-28,193.53-28,96.76,28,193.53,28,96.77-28,193.53-28,96.77,28,193.53,28,96.77-28,193.54-28,96.76,28,193.53,28,96.77-28,193.53-28,96.77,28,193.54,28,96.76-28,193.53-28,96.76,28,193.53,28,96.77-28,193.53-28,96.77,28,193.54,28,96.77-28,193.54-28,96.41,25.22,193.14,28c2.77.08,14.4-11.22,14.4-8.45s-28,2.77-28,5.55,28,2.77,28,5.54-28,2.78-28,5.55,28,2.77,28,5.54-28,2.77-28,5.54,28,2.78,28,5.55-28,2.77-28,5.54,28,2.78,28,5.55-28,2.77-28,5.55,28,2.77,28,5.54-28,2.78-28,5.55,28,2.77,28,5.55-28.24,4.56-27.89,7.31C2904.37,170.48,2920.18,178.24,2917.4,178.32Z"/><path class="cls-2" d="M2917.16,61.58c-96.76,1.12-96.92-28-193.69-28s-96.76,28-193.53,28-96.76-28-193.53-28-96.77,28-193.53,28-96.77-28-193.53-28-96.77,28-193.54,28-96.76-28-193.53-28-96.77,28-193.53,28-96.77-28-193.54-28-96.76,28-193.53,28-96.76-28-193.53-28-96.77,28-193.53,28-96.77-28-193.54-28-96.77,28-193.54,28-96.61-26.88-193.38-28C13,33.57,0,46.46,0,45.34s28-1.11,28-2.23S0,42,0,40.87s28-1.11,28-2.23S0,37.52,0,36.4s28-1.11,28-2.23S0,33.05,0,31.93s28-1.11,28-2.23S0,28.58,0,27.47s28-1.12,28-2.24S0,24.11,0,23s28-1.12,28-2.24S0,19.63,0,18.52s28-1.13,28-2.25S12.72,0,13.84,0c96.76-1.12,96.92,28,193.69,28S304.29,0,401.06,0s96.76,28,193.53,28S691.36,0,788.12,0s96.77,28,193.53,28,96.77-28,193.54-28S1272,28,1368.72,28s96.77-28,193.53-28S1659,28,1755.79,28s96.76-28,193.53-28,96.76,28,193.53,28,96.77-28,193.53-28,96.77,28,193.54,28,96.77-28,193.54-28,96.61,26.88,193.38,28C2918,28,2931,15.15,2931,16.27s-28,1.11-28,2.23,28,1.12,28,2.23-28,1.12-28,2.24,28,1.12,28,2.23-28,1.12-28,2.24,28,1.12,28,2.24-28,1.11-28,2.23,28,1.12,28,2.23-28,1.12-28,2.24,28,1.12,28,2.24-28,1.12-28,2.24,28,1.11,28,2.23-28,2.1-28,3.22C2903.6,54.47,2918.28,61.56,2917.16,61.58Z"/><path class="cls-2" d="M2917.16,128.67c-96.76,1.12-96.92-28-193.69-28s-96.76,28-193.53,28-96.76-28-193.53-28-96.77,28-193.53,28-96.77-28-193.53-28-96.77,28-193.54,28-96.76-28-193.53-28-96.77,28-193.53,28-96.77-28-193.54-28-96.76,28-193.53,28-96.76-28-193.53-28-96.77,28-193.53,28-96.77-28-193.54-28-96.77,28-193.54,28-96.61-26.88-193.38-28C13,100.66,0,113.56,0,112.44s28-1.12,28-2.23S0,109.09,0,108s28-1.12,28-2.23S0,104.62,0,103.5s28-1.12,28-2.23S0,100.15,0,99s28-1.12,28-2.24S0,95.68,0,94.56s28-1.12,28-2.23S0,91.21,0,90.09,28,89,28,87.85,0,86.73,0,85.61s28-1.12,28-2.24S12.72,67.14,13.84,67.13c96.76-1.12,96.92,28,193.69,28s96.76-28,193.53-28,96.76,28,193.53,28,96.77-28,193.53-28,96.77,28,193.53,28,96.77-28,193.54-28,96.76,28,193.53,28,96.77-28,193.53-28,96.77,28,193.54,28,96.76-28,193.53-28,96.76,28,193.53,28,96.77-28,193.53-28,96.77,28,193.54,28,96.77-28,193.54-28,96.61,26.88,193.38,28c1.12,0,14.16-12.89,14.16-11.77s-28,1.12-28,2.23,28,1.12,28,2.24-28,1.12-28,2.23,28,1.12,28,2.24-28,1.12-28,2.23,28,1.12,28,2.24-28,1.12-28,2.24,28,1.11,28,2.23-28,1.12-28,2.23,28,1.12,28,2.24-28,1.12-28,2.24,28,1.12,28,2.24-28,2.09-28,3.21C2903.6,121.57,2918.28,128.66,2917.16,128.67Z"/><path class="cls-2" d="M2917.16,195.77c-96.76,1.12-96.92-28-193.69-28s-96.76,28-193.53,28-96.76-28-193.53-28-96.77,28-193.53,28-96.77-28-193.53-28-96.77,28-193.54,28-96.76-28-193.53-28-96.77,28-193.53,28-96.77-28-193.54-28-96.76,28-193.53,28-96.76-28-193.53-28-96.77,28-193.53,28-96.77-28-193.54-28-96.77,28-193.54,28-96.61-26.88-193.38-28C13,167.76,0,180.65,0,179.53s28-1.11,28-2.23-28-1.12-28-2.23,28-1.12,28-2.24S0,171.71,0,170.6s28-1.12,28-2.24-28-1.12-28-2.24,28-1.11,28-2.23-28-1.12-28-2.23,28-1.12,28-2.24S0,158.3,0,157.18s28-1.12,28-2.23-28-1.12-28-2.24,28-1.12,28-2.25-15.28-16.22-14.16-16.24c96.76-1.12,96.92,28,193.69,28s96.76-28,193.53-28,96.76,28,193.53,28,96.77-28,193.53-28,96.77,28,193.53,28,96.77-28,193.54-28,96.76,28,193.53,28,96.77-28,193.53-28,96.77,28,193.54,28,96.76-28,193.53-28,96.76,28,193.53,28,96.77-28,193.53-28,96.77,28,193.54,28,96.77-28,193.54-28,96.61,26.88,193.38,28c1.12,0,14.16-12.88,14.16-11.76s-28,1.11-28,2.23,28,1.12,28,2.24-28,1.11-28,2.23,28,1.12,28,2.24-28,1.11-28,2.23,28,1.12,28,2.24-28,1.11-28,2.23,28,1.12,28,2.23-28,1.12-28,2.24,28,1.12,28,2.24-28,1.12-28,2.24,28,1.12,28,2.23-28,2.1-28,3.22C2903.6,188.66,2918.28,195.76,2917.16,195.77Z"/></g></g></svg>