<svg xmlns="http://www.w3.org/2000/svg" viewBox="0 0 2300 117"><defs><style>.cls-1{fill:#282828;}.cls-2{fill:#fff;}</style></defs><g id="Layer_2" data-name="Layer 2"><g id="Layer_1-2" data-name="Layer 1"><rect class="cls-1" y="2" width="115" height="115"/><rect class="cls-2" y="2" width="57" height="57"/><rect class="cls-2" x="57" y="59" width="58" height="58"/><rect class="cls-1" x="115" y="2" width="115" height="115"/><rect class="cls-2" x="115" y="2" width="57" height="57"/><rect class="cls-2" x="172" y="59" width="58" height="58"/><rect class="cls-1" x="230" y="2" width="115" height="115"/><rect class="cls-2" x="230" y="2" width="57" height="57"/><rect class="cls-2" x="287" y="59" width="58" height="58"/><rect class="cls-1" x="345" y="2" width="115" height="115"/><rect class="cls-2" x="345" y="2" width="57" height="57"/><rect class="cls-2" x="402" y="59" width="58" height="58"/><rect class="cls-1" x="460" y="1" width="115" height="115"/><rect class="cls-2" x="460" y="1" width="57" height="57"/><rect class="cls-2" x="517" y="58" width="58" height="58"/><rect class="cls-1" x="575" y="1" width="115" height="115"/><rect class="cls-2" x="575" y="1" width="57" height="57"/><rect class="cls-2" x="632" y="58" width="58" height="58"/><rect class="cls-1" x="690" y="1" width="115" height="115"/><rect class="cls-2" x="690" y="1" width="57" height="57"/><rect class="cls-2" x="747" y="58" width="58" height="58"/><rect class="cls-1" x="805" y="1" width="115" height="115"/><rect class="cls-2" x="805" y="1" width="57" height="57"/><rect class="cls-2" x="862" y="58" width="58" height="58"/><rect class="cls-1" x="920" y="1" width="115" height="115"/><rect class="cls-2" x="920" y="1" width="57" height="57"/><rect class="cls-2" x="977" y="58" width="58" height="58"/><rect class="cls-1" x="1035" y="1" width="115" height="115"/><rect class="cls-2" x="1035" y="1" width="57" height="57"/><rect class="cls-2" x="1092" y="58" width="58" height="58"/><rect class="cls-1" x="1150" y="1" width="115" height="115"/><rect class="cls-2" x="1150" y="1" width="57" height="57"/><rect class="cls-2" x="1207" y="58" width="58" height="58"/><rect class="cls-1" x="1265" y="1" width="115" height="115"/><rect class="cls-2" x="1265" y="1" width="57" height="57"/><rect class="cls-2" x="1322" y="58" width="58" height="58"/><rect class="cls-1" x="1380" width="115" height="115"/><rect class="cls-2" x="1380" width="57" height="57"/><rect class="cls-2" x="1437" y="57" width="58" height="58"/><rect class="cls-1" x="1495" width="115" height="115"/><rect class="cls-2" x="1495" width="57" height="57"/><rect class="cls-2" x="1552" y="57" width="58" height="58"/><rect class="cls-1" x="1610" width="115" height="115"/><rect class="cls-2" x="1610" width="57" height="57"/><rect class="cls-2" x="1667" y="57" width="58" height="58"/><rect class="cls-1" x="1725" width="115" height="115"/><rect class="cls-2" x="1725" width="57" height="57"/><rect class="cls-2" x="1782" y="57" width="58" height="58"/><rect class="cls-1" x="1840" width="115" height="115"/><rect class="cls-2" x="1840" width="57" height="57"/><rect class="cls-2" x="1897" y="57" width="58" height="58"/><rect class="cls-1" x="1955" width="115" height="115"/><rect class="cls-2" x="1955" width="57" height="57"/><rect class="cls-2" x="2012" y="57" width="58" height="58"/><rect class="cls-1" x="2070" width="115" height="115"/><rect class="cls-2" x="2070" width="57" height="57"/><rect class="cls-2" x="2127" y="57" width="58" height="58"/><rect class="cls-1" x="2185" width="115" height="115"/><rect class="cls-2" x="2185" width="57" height="57"/><rect class="cls-2" x="2242" y="57" width="58" height="58"/></g></g></svg>